<svg width="40" height="40" fill="none" xmlns="http://www.w3.org/2000/svg"><path d="M2.14 35.108v3.745A1.147 1.147 0 0 0 3.287 40h6.55a1.147 1.147 0 0 0 1.147-1.147v-3.745H2.14ZM6.896.054a.782.782 0 0 0-.574 0C2.244 1.838 2.15 7.752 2.15 7.752v23.925h8.845V7.752s-.063-5.893-4.1-7.698Zm8.26 35.054v3.745A1.148 1.148 0 0 0 16.304 40h6.56a1.157 1.157 0 0 0 1.147-1.147v-3.745h-8.855ZM19.87.054a.782.782 0 0 0-.573 0c-4.078 1.784-4.172 7.698-4.172 7.698v23.925h8.855V7.752s-.032-5.893-4.11-7.698Zm8.302 35.054v3.745A1.147 1.147 0 0 0 29.319 40h6.56a1.148 1.148 0 0 0 1.148-1.147v-3.745h-8.855ZM32.887.054a.782.782 0 0 0-.574 0c-4.078 1.784-4.171 7.698-4.171 7.698v23.925h8.854V7.752s-.031-5.893-4.11-7.698Z" fill="#fff"/></svg>