<svg width="40" height="40" fill="none" xmlns="http://www.w3.org/2000/svg"><path fill-rule="evenodd" clip-rule="evenodd" d="M38.946 12.713H27.709a.431.431 0 0 1-.422-.431V1.055A1.054 1.054 0 0 0 26.232 0H13.768a1.055 1.055 0 0 0-1.055 1.055v11.227a.431.431 0 0 1-.431.431H1.055A1.055 1.055 0 0 0 0 13.768v12.464a1.055 1.055 0 0 0 1.055 1.055h11.227a.431.431 0 0 1 .431.431v11.227A1.055 1.055 0 0 0 13.768 40h12.464a1.055 1.055 0 0 0 1.055-1.055V27.737a.431.431 0 0 1 .422-.431h11.237A1.055 1.055 0 0 0 40 26.25V13.787a1.054 1.054 0 0 0-1.054-1.074Z" fill="#fff"/></svg>