<svg xmlns="http://www.w3.org/2000/svg" width="600" height="600"><path d="M296.704.004c-66.766.428-132.772 24.229-184.63 66.083l56.662 65.786c47.821-37.739 112.256-53.118 172.018-41.237 32.844 6.318 64.096 20.74 90.464 41.237l56.661-65.786C434.241 22.804 365.767-1.03 296.704.004z" style="color:#000;fill:#fa9c1e;fill-opacity:1;fill-rule:nonzero;stroke:none;stroke-width:9;marker:none;visibility:visible;display:inline;overflow:visible;enable-background:accumulate"/><path d="M93.628 82.253C33.924 138.343-1.082 219.877.026 302.123c.035 85.37 38.978 169.23 103.652 224.696 59.78 52.284 141.085 78.919 220.461 72.18 86.01-6.404 167.648-52.344 218.117-122.142 49.125-66.329 68.371-153.797 52.064-234.909-11.987-62.091-44.54-119.635-90.837-162.406l-56.662 65.786c45.656 43.034 70.585 106.557 65.885 169.224-2.056 31.049-11.074 61.69-26.314 88.96L370.92 291.974 312.66 166.39l-.088 190.178 116.695 112.927c-52.002 40.402-123.353 53.802-186.578 35.894-25.743-7.181-50.121-19.23-71.308-35.398l117.488-113.423c-.205-61.83.718-128.577 0-190.382l-58.347 125.787-116.464 112.463c-35.53-62.024-36.38-142.21-2.182-204.927 10.691-20.092 24.841-38.428 41.257-54.182L96.47 79.542l-2.843 2.71z" style="color:#000;fill:#4a4c4e;fill-opacity:1;fill-rule:nonzero;stroke:none;stroke-width:9;marker:none;visibility:visible;display:inline;overflow:visible;enable-background:accumulate"/></svg>