<svg width="40" height="40" fill="none" xmlns="http://www.w3.org/2000/svg"><path d="M32.376 24.681c-2.675 0-4.842 1.57-4.842 3.508 0 1.936 2.167 3.5 4.842 3.5 2.676 0 4.849-1.57 4.849-3.5 0-1.931-2.167-3.508-4.849-3.508Zm0 5.99c-1.527 0-2.768-.831-2.768-1.862 0-1.03 1.241-1.862 2.768-1.862 1.528 0 2.77.838 2.77 1.862 0 1.025-1.236 1.863-2.77 1.863Zm-15.941 6.414 11.72-32.207a.931.931 0 0 0-.875-1.242.931.931 0 0 0-.875.621L14.697 36.451a.932.932 0 0 0 .875 1.242.938.938 0 0 0 .863-.608Zm-.845-8.542 5.296-14.552A10.956 10.956 0 1 0 7.849 29.132l2.576 4.6a.621.621 0 0 0 1.03 0l2.577-4.6a10.946 10.946 0 0 0 1.558-.59Zm-4.122-3.316a.682.682 0 0 1-.968 0L4.373 19.1a.683.683 0 0 1 0-.968l6.127-6.127a.683.683 0 0 1 .968 0l6.128 6.127a.682.682 0 0 1 0 .968l-6.128 6.127Z" fill="#fff"/><path d="M21.928 18.61a10.325 10.325 0 0 0-.143-1.651l-3.588 9.864a10.926 10.926 0 0 0 3.731-8.213Z" fill="#fff"/><path d="M25.48 9.987a.62.62 0 0 0-.621.62l-3.893 12.851-.912 1.242c.228.223.436.466.62.726l5.588-15.42-.783-.019Zm12.061 4.277h-3.464l-2.24-3.662a1.242 1.242 0 0 0-1.062-.621h-2.483l-.447 1.241h2.408a.621.621 0 0 1 .528.292l1.664 2.72H26.74l-4.476 12.303h2.483a.621.621 0 0 0 1.204.162 5.695 5.695 0 0 1 .832-1.54 7.792 7.792 0 0 1 11.174 0c.36.467.644.99.838 1.546a.62.62 0 0 0 1.078.18.62.62 0 0 0 .127-.341v-9.797a2.484 2.484 0 0 0-2.459-2.483Z" fill="#fff"/></svg>