<svg width="40" height="40" fill="none" xmlns="http://www.w3.org/2000/svg"><path d="m39.674 25.927-4.852-2.673a.693.693 0 0 0-.373-.107h-2.69l-2.71-4.296a2.98 2.98 0 0 0 0-.373 2.636 2.636 0 0 0-2.18-2.598l-1.424-2.102a4.182 4.182 0 0 0-3.29-4.814.875.875 0 0 0 .29-.762l-.268-2.635a.883.883 0 0 0-.967-.762l-4.662.472a.884.884 0 0 0-.761.967l.274 2.636a.876.876 0 0 0 .967.762l2.225-.221a4.175 4.175 0 0 0-2.034 2.91 3.948 3.948 0 0 0 0 1.157l-2.4 1.676-4.707-2.75V6.321a.7.7 0 0 0-.7-.701H4.878a.7.7 0 0 0-.7.7v21.786L.132 33.583a.7.7 0 0 0 .564 1.112h12.865a.693.693 0 0 0 .556-1.112l-4.037-5.477V15.248l3.809 2.201a1.912 1.912 0 0 0 2.194-.19L18.2 15.78a4.167 4.167 0 0 0 5.111.983l.633.93a2.8 2.8 0 0 0-.084.365l-4.723 5.24a2.445 2.445 0 0 0-.205 3.01l3.366 4.935h-1.774a.7.7 0 0 0-.694.7v2.088a.7.7 0 0 0 .694.7h7.853a.7.7 0 0 0 .7-.7V31.83a.663.663 0 0 0-.129-.397l-4.098-5.438a.708.708 0 0 0-.396-.282l-2.133-.64-.046-.069 3.558-3.953c.172.04.348.06.525.061l2.575 4.09c.155.245.351.461.579.64l4.99 3.809-1.273 2.59a.701.701 0 0 0 .32.937l1.874.921a.7.7 0 0 0 .937-.32l.144-.304 3.42-6.642a.7.7 0 0 0-.25-.907Z" fill="#fff"/></svg>